<svg id="Layer_3" enable-background="new 0 0 64 64" height="512" viewBox="0 0 64 64" width="512" xmlns="http://www.w3.org/2000/svg"><g><path d="m17 41h2v-2.142c1.721-.447 3-1.999 3-3.858 0-1.2-.542-2.266-1.382-3 .84-.734 1.382-1.8 1.382-3 0-1.858-1.279-3.411-3-3.858v-2.142h-2v2h-1v-2h-2v2h-2v2h1v10h-1v2h2v2h2v-2h1zm1-14c1.103 0 2 .897 2 2s-.897 2-2 2h-3v-4zm-3 6h3c1.103 0 2 .897 2 2s-.897 2-2 2h-3z"/><path d="m17 42v2c6.617 0 12-5.383 12-12h-2c0 5.514-4.486 10-10 10z"/><path d="m17 20c-6.617 0-12 5.383-12 12h2c0-5.514 4.486-10 10-10z"/><path d="m47 16c-6.882 0-12.746 4.376-15 10.485-2.254-6.109-8.118-10.485-15-10.485-8.822 0-16 7.178-16 16s7.178 16 16 16c6.882 0 12.746-4.376 15-10.485 2.254 6.109 8.118 10.485 15 10.485 8.822 0 16-7.178 16-16s-7.178-16-16-16zm0 30c-1.644 0-3.416-2.783-4.345-7.249 1.374.158 2.824.249 4.345.249s2.971-.091 4.345-.249c-.929 4.466-2.701 7.249-4.345 7.249zm0-9c-1.679 0-3.248-.114-4.693-.307-.193-1.445-.307-3.014-.307-4.693s.114-3.248.307-4.692c1.445-.194 3.014-.308 4.693-.308s3.248.114 4.693.308c.193 1.444.307 3.013.307 4.692s-.114 3.248-.307 4.693c-1.445.193-3.014.307-4.693.307zm-6.751-.655c-4.466-.929-7.249-2.701-7.249-4.345s2.783-3.416 7.249-4.345c-.158 1.374-.249 2.824-.249 4.345s.091 2.971.249 4.345zm6.751-18.345c1.644 0 3.416 2.783 4.346 7.248-1.375-.157-2.825-.248-4.346-.248s-2.971.091-4.346.248c.93-4.465 2.702-7.248 4.346-7.248zm6.751 9.655c4.466.929 7.249 2.701 7.249 4.345s-2.783 3.416-7.249 4.345c.158-1.374.249-2.824.249-4.345s-.091-2.971-.249-4.345zm6.685.445c-1.675-1.132-4.086-2.018-6.989-2.548-.529-2.904-1.415-5.314-2.548-6.989 4.587 1.334 8.204 4.951 9.537 9.537zm-17.335-9.536c-1.133 1.675-2.018 4.086-2.548 6.989-2.904.529-5.314 1.415-6.989 2.548 1.333-4.587 4.95-8.204 9.537-9.537zm-26.101 27.436c-7.72 0-14-6.28-14-14s6.28-14 14-14 14 6.28 14 14-6.28 14-14 14zm16.564-10.101c1.675 1.133 4.086 2.018 6.989 2.548.529 2.904 1.415 5.314 2.548 6.989-4.587-1.333-8.204-4.95-9.537-9.537zm17.335 9.537c1.133-1.675 2.019-4.086 2.548-6.989 2.904-.529 5.314-1.415 6.989-2.548-1.333 4.587-4.95 8.204-9.537 9.537z"/><path d="m32 3c5.286 0 9.711 3.75 10.761 8.728l-3.136-2.509-1.25 1.562 5 4c.185.147.405.219.624.219.294 0 .584-.128.782-.375l4-5-1.562-1.249-2.471 3.089c-1.183-5.959-6.448-10.465-12.748-10.465-7.168 0-13 5.832-13 13h2c0-6.065 4.935-11 11-11z"/><path d="m32 61c-5.287 0-9.711-3.75-10.761-8.729l3.136 2.51 1.25-1.562-5-4c-.432-.346-1.061-.272-1.406.156l-4 5 1.562 1.25 2.471-3.089c1.183 5.957 6.448 10.464 12.748 10.464 7.168 0 13-5.832 13-13h-2c0 6.065-4.935 11-11 11z"/></g></svg>